<svg width="126" height="145" viewBox="0 0 126 145" fill="none" xmlns="http://www.w3.org/2000/svg">
<path fill-rule="evenodd" clip-rule="evenodd" d="M32.1593 10.2792C22.0466 14.6578 22.4206 28.3016 32.7715 32.5639C35.1466 33.5424 36.6666 33.567 39.6628 32.6743C50.9393 29.3147 51.8342 14.7219 41.0379 10.2378C37.0535 8.58263 36.0703 8.58657 32.1593 10.2792ZM84.7886 10.0474C80.7388 11.3485 77.3854 16.4038 77.3854 21.2075C77.3854 29.294 85.1895 35.0358 92.7901 32.5422C103.602 28.9951 104.138 14.6065 93.6205 10.2378C89.9249 8.70297 89.0339 8.68324 84.7886 10.0474ZM27.9507 40.3485C21.991 42.3952 15.82 47.775 12.5698 53.7585C10.8485 56.9278 10.4258 59.3731 10.4238 66.1831C10.4219 74.098 10.6828 75.182 14.3556 82.4586C17.4739 88.6374 20.356 92.3137 28.2434 100.177C34.9125 106.826 38.9177 110.092 40.3811 110.076C41.5835 110.064 42.3653 109.853 42.1193 109.608C41.8732 109.364 43.8267 107.94 46.4608 106.444C61.4062 97.9579 69.5625 79.1355 65.0225 63.6067C61.182 50.4748 54.7064 42.7178 45.2524 39.9263C38.8016 38.0226 34.4144 38.1291 27.9507 40.3485ZM77.2644 40.0101C70.5616 42.0628 69.9415 43.2514 72.8633 48.4488C80.3231 61.7187 80.2288 82.9706 72.647 97.0859C69.5218 102.907 58.3792 114.43 53.4791 116.909C51.6219 117.85 49.9224 118.777 49.7041 118.971C49.4848 119.164 51.2716 121.439 53.6756 124.024C56.0785 126.61 58.8247 129.834 59.7781 131.19L61.5114 133.656L63.194 131.19C65.3757 127.993 77.3358 116.203 89.4348 105.323C100.594 95.2897 107.184 86.9961 110.05 79.3772C115.116 65.9188 113.405 55.2371 104.818 46.7137C97.1585 39.1096 87.7124 36.8123 77.2644 40.0101Z" fill="#BB0E0E"/>
<path fill-rule="evenodd" clip-rule="evenodd" d="M30.5142 11.5951C26.8572 13.849 24.4573 19.065 25.2192 23.1033C25.5496 24.8542 27.1836 27.5855 28.8494 29.1726C31.3436 31.5479 32.7256 32.0578 36.6703 32.0578C42.1518 32.0578 45.0806 30.0673 47.3119 24.8216C51.3231 15.3966 39.4771 6.06929 30.5142 11.5951ZM81.7516 13.2177C78.8962 16.0565 78.3783 17.2659 78.3783 21.0931C78.3783 24.6954 78.9667 26.2697 81.2734 28.8363C83.8082 31.6574 84.7825 32.0578 89.1062 32.0578C94.7454 32.0578 97.6424 30.1146 99.8946 24.8216C102.779 18.0451 96.8835 9.86395 89.1161 9.86395C85.8996 9.86395 84.47 10.515 81.7516 13.2177ZM26.9634 41.4345C19.7873 44.6718 17.1354 47.1201 13.9576 53.4419C6.57122 68.1382 12.3593 84.6139 31.1402 102.351L38.7171 109.507L42.3721 107.989C50.3389 104.679 57.7064 97.4242 61.8862 88.7755C64.686 82.9814 64.9846 81.4604 64.9846 72.9932C64.9846 64.4343 64.6999 63.0237 61.7007 56.7177C57.6766 48.2554 54.5604 44.8346 48.1185 41.8064C41.7788 38.8265 33.0818 38.6736 26.9634 41.4345ZM75.65 41.4019C73.3304 42.4485 71.4334 43.5631 71.4334 43.8788C71.4334 44.1954 72.5536 46.6506 73.9217 49.3355C85.6843 72.4142 77.8585 101.469 55.995 115.898L50.5026 119.522L54.2994 123.631C56.3869 125.89 58.8493 128.815 59.772 130.131L61.4477 132.524L63.5947 129.638C64.7753 128.051 70.2588 122.537 75.7799 117.387C98.711 95.9949 104.128 90.0628 107.854 82.2614C115.979 65.252 112.132 49.4825 98.1663 42.5432C90.6043 38.787 82.3706 38.3688 75.65 41.4019Z" fill="#BB0E0E"/>
</svg>
