<svg width="67" height="79" viewBox="0 0 67 79" fill="none" xmlns="http://www.w3.org/2000/svg">
<path fill-rule="evenodd" clip-rule="evenodd" d="M13.616 1.43684C11.2651 2.88246 9.72231 6.22793 10.2121 8.81801C10.4245 9.94097 11.475 11.6928 12.5458 12.7107C14.1492 14.2342 15.0377 14.5612 17.5736 14.5612C21.0974 14.5612 22.9802 13.2845 24.4146 9.92009C26.9932 3.87509 19.3779 -2.10728 13.616 1.43684ZM46.5543 2.47756C44.7188 4.29833 44.3858 5.07397 44.3858 7.52866C44.3858 9.83911 44.7641 10.8488 46.2469 12.495C47.8765 14.3044 48.5028 14.5612 51.2823 14.5612C54.9076 14.5612 56.7699 13.3149 58.2177 9.92009C60.0718 5.57376 56.282 0.326538 51.2887 0.326538C49.221 0.326538 48.3019 0.744089 46.5543 2.47756ZM11.3334 20.5752C6.7202 22.6516 5.01538 24.2218 2.97252 28.2765C-1.77587 37.7024 1.94503 48.2696 14.0185 59.646L18.8893 64.2353L21.239 63.2616C26.3605 61.139 31.0967 56.4859 33.7838 50.9388C35.5836 47.2226 35.7756 46.247 35.7756 40.8163C35.7756 35.3268 35.5926 34.4221 33.6645 30.3776C31.0776 24.95 29.0743 22.756 24.9331 20.8137C20.8576 18.9025 15.2667 18.8044 11.3334 20.5752ZM42.6319 20.5544C41.1407 21.2256 39.9213 21.9405 39.9213 22.1429C39.9213 22.346 40.6413 23.9207 41.5209 25.6428C49.0826 40.445 44.0516 59.0804 29.9965 68.3348L26.4657 70.6592L28.9066 73.2942C30.2485 74.743 31.8315 76.6194 32.4246 77.4634L33.5019 78.9982L34.8821 77.1471C35.641 76.1291 39.1661 72.5926 42.7155 69.2895C57.4568 55.5692 60.9392 51.7644 63.3347 46.7607C68.5576 35.8513 66.0849 25.737 57.1067 21.2863C52.2454 18.8772 46.9523 18.6089 42.6319 20.5544Z" fill="white"/>
</svg>
