<svg width="81" height="93" viewBox="0 0 81 93" fill="none" xmlns="http://www.w3.org/2000/svg">
<path fill-rule="evenodd" clip-rule="evenodd" d="M20.6742 6.59288C14.1732 9.40123 14.4136 18.1521 21.0678 20.8858C22.5946 21.5134 23.5717 21.5292 25.4979 20.9566C32.7471 18.8018 33.3224 9.44235 26.3819 6.56631C23.8205 5.50472 23.1884 5.50725 20.6742 6.59288ZM54.5074 6.44421C51.9039 7.27868 49.7481 10.521 49.7481 13.602C49.7481 18.7885 54.765 22.4712 59.6512 20.8719C66.6019 18.5968 66.9463 9.36833 60.185 6.56631C57.8092 5.58191 57.2365 5.56925 54.5074 6.44421ZM17.9687 25.8787C14.1375 27.1914 10.1704 30.6419 8.08097 34.4796C6.9744 36.5123 6.7027 38.0807 6.70142 42.4485C6.70015 47.5249 6.86789 48.2202 9.22901 52.8873C11.2336 56.8502 13.0864 59.2081 18.1569 64.2516C22.4441 68.5157 25.0189 70.6104 25.9597 70.6003C26.7327 70.5927 27.2352 70.4573 27.0771 70.3004C26.9189 70.1435 28.1747 69.2306 29.8681 68.2709C39.4758 62.8282 44.7191 50.7559 41.8006 40.796C39.3317 32.3735 35.1688 27.3983 29.0912 25.6079C24.9443 24.3869 22.124 24.4552 17.9687 25.8787ZM49.6703 25.6617C45.3614 26.9782 44.9628 27.7406 46.8411 31.074C51.6367 39.5851 51.5761 53.2156 46.702 62.2689C44.693 66.0022 37.5299 73.3928 34.3798 74.9833C33.1859 75.5862 32.0933 76.1809 31.953 76.3056C31.8121 76.4296 32.9607 77.8885 34.5061 79.5466C36.0508 81.2048 37.8163 83.273 38.4292 84.1429L39.5434 85.7245L40.6251 84.1429C42.0276 82.0918 49.7162 74.5303 57.4942 67.5522C64.6681 61.1168 68.9043 55.7975 70.7469 50.9109C74.0035 42.2789 72.9033 35.4279 67.3832 29.9612C62.4594 25.0841 56.3869 23.6106 49.6703 25.6617Z" fill="white"/>
<path fill-rule="evenodd" clip-rule="evenodd" d="M19.6159 7.43684C17.265 8.88246 15.7222 12.2279 16.212 14.818C16.4244 15.941 17.4748 17.6928 18.5457 18.7107C20.1491 20.2342 21.0376 20.5612 23.5734 20.5612C27.0973 20.5612 28.98 19.2845 30.4144 15.9201C32.993 9.87509 25.3778 3.89272 19.6159 7.43684ZM52.5542 8.47756C50.7187 10.2983 50.3857 11.074 50.3857 13.5287C50.3857 15.8391 50.7639 16.8488 52.2468 18.495C53.8764 20.3044 54.5027 20.5612 57.2822 20.5612C60.9074 20.5612 62.7698 19.3149 64.2176 15.9201C66.0717 11.5738 62.2819 6.32654 57.2886 6.32654C55.2208 6.32654 54.3018 6.74409 52.5542 8.47756ZM17.3333 26.5752C12.7201 28.6516 11.0153 30.2218 8.97239 34.2765C4.22401 43.7024 7.94491 54.2696 20.0184 65.646L24.8892 70.2353L27.2389 69.2616C32.3603 67.139 37.0966 62.4859 39.7836 56.9388C41.5835 53.2226 41.7755 52.247 41.7755 46.8163C41.7755 41.3268 41.5924 40.4221 39.6644 36.3776C37.0775 30.95 35.0742 28.756 30.933 26.8137C26.8575 24.9025 21.2665 24.8044 17.3333 26.5752ZM48.6318 26.5544C47.1406 27.2256 45.9212 27.9405 45.9212 28.1429C45.9212 28.346 46.6412 29.9207 47.5207 31.6428C55.0824 46.445 50.0515 65.0804 35.9964 74.3348L32.4656 76.6592L34.9064 79.2942C36.2484 80.743 37.8314 82.6194 38.4245 83.4634L39.5017 84.9982L40.8819 83.1471C41.6409 82.1291 45.166 78.5926 48.7153 75.2895C63.4567 61.5692 66.9391 57.7644 69.3346 52.7607C74.5575 41.8513 72.0848 31.737 63.1065 27.2863C58.2453 24.8772 52.9522 24.6089 48.6318 26.5544Z" fill="white"/>
</svg>
